<?xml version="1.0" standalone="no"?>
<!DOCTYPE svg PUBLIC "-//W3C//DTD SVG 20010904//EN"
 "http://www.w3.org/TR/2001/REC-SVG-20010904/DTD/svg10.dtd">
<svg version="1.0" xmlns="http://www.w3.org/2000/svg"
 width="300.000000pt" height="75.000000pt" viewBox="0 0 300.000000 75.000000"
 preserveAspectRatio="xMidYMid meet">
<metadata>
Created by potrace 1.10, written by Peter Selinger 2001-2011
</metadata>
<g transform="translate(0.000000,75.000000) scale(0.100000,-0.100000)"
fill="#000000" stroke="none">
<path d="M1482 617 c-6 -7 -48 -111 -93 -231 -78 -210 -80 -218 -63 -237 13
-14 28 -19 53 -17 33 3 38 8 64 61 27 56 29 58 64 55 31 -3 37 -8 52 -44 23
-58 39 -74 75 -74 61 0 69 29 34 125 -14 41 -19 70 -14 89 7 27 8 28 20 10 7
-10 26 -55 41 -99 15 -44 32 -86 38 -92 5 -7 28 -13 51 -13 36 0 42 3 43 23 1
12 -27 101 -63 197 -36 96 -71 191 -79 210 -7 20 -20 36 -31 38 -19 3 -24 -4
-59 -95 -10 -24 -21 -43 -25 -43 -4 0 -17 28 -30 63 -32 87 -52 106 -78 74z
m193 -447 c4 -6 -10 -10 -33 -10 l-39 0 -48 130 c-26 72 -49 130 -51 130 -1 0
-24 -58 -50 -130 l-47 -130 -38 0 -37 0 68 178 c37 97 75 201 85 230 l17 54
84 -221 c46 -122 86 -226 89 -231z m80 228 c44 -116 82 -215 83 -220 2 -4 -14
-8 -35 -8 l-38 0 -43 117 c-24 65 -46 125 -49 133 -3 10 -10 1 -19 -25 -18
-49 -34 -67 -34 -37 0 11 -5 32 -11 46 -10 21 -6 39 22 115 19 50 36 91 39 91
3 0 41 -95 85 -212z m-227 -87 c12 -33 8 -41 -23 -41 -12 0 -24 3 -28 6 -9 10
14 64 28 64 7 0 18 -13 23 -29z"/>
</g>
</svg>
