<?xml version="1.0" standalone="no"?>
<!DOCTYPE svg PUBLIC "-//W3C//DTD SVG 20010904//EN"
 "http://www.w3.org/TR/2001/REC-SVG-20010904/DTD/svg10.dtd">
<svg version="1.0" xmlns="http://www.w3.org/2000/svg"
 width="295.000000pt" height="221.000000pt" viewBox="0 0 295.000000 221.000000"
 preserveAspectRatio="xMidYMid meet">
<metadata>
Created by potrace 1.16, written by Peter Selinger 2001-2019
</metadata>
<g transform="translate(0.000000,221.000000) scale(0.100000,-0.100000)"
fill="#000000" stroke="none">
<path d="M1082 2159 c-24 -16 -45 -46 -76 -113 -108 -226 -544 -1374 -631
-1661 -23 -76 -35 -136 -35 -175 0 -53 4 -64 32 -96 48 -55 98 -74 193 -74
167 0 193 21 311 251 47 94 97 183 110 199 37 43 79 53 169 41 126 -18 149
-37 210 -182 88 -204 151 -286 237 -310 59 -16 197 -6 244 17 66 33 79 62 78
167 -1 95 -4 106 -97 402 -48 151 -59 237 -42 320 21 101 27 105 63 53 39 -57
103 -208 182 -427 71 -201 133 -353 155 -387 27 -42 79 -56 218 -62 145 -5
184 4 193 47 3 14 7 31 9 38 9 28 -67 290 -165 569 -91 259 -420 1136 -454
1209 -44 94 -87 135 -141 135 -70 0 -93 -35 -190 -280 -67 -171 -133 -302
-149 -297 -19 6 -52 75 -126 262 -84 210 -122 285 -171 337 -42 44 -76 49
-127 17z m337 -807 c156 -411 320 -839 363 -950 61 -154 77 -207 69 -215 -8
-8 -63 -13 -150 -15 l-138 -3 -143 388 c-170 464 -255 683 -274 708 -12 17
-19 3 -76 -141 -34 -87 -124 -330 -200 -539 -76 -209 -141 -388 -145 -398 -6
-15 -24 -17 -160 -17 l-153 0 30 78 c271 700 569 1502 636 1710 26 78 49 142
52 142 3 0 133 -336 289 -748z m493 568 c121 -293 638 -1651 638 -1675 0 -22
-65 -35 -185 -35 l-110 0 -195 531 c-107 292 -198 536 -202 542 -16 25 -44
-13 -89 -119 -55 -133 -83 -186 -103 -203 -19 -16 -19 -16 -35 87 -6 40 -22
105 -36 144 -31 89 -31 121 -1 228 36 131 149 434 221 595 l27 60 16 -30 c8
-17 33 -73 54 -125z m-728 -1029 c31 -32 76 -146 76 -191 0 -44 -31 -60 -115
-60 -38 0 -81 6 -95 13 -21 11 -25 19 -23 58 2 77 73 209 112 209 9 0 30 -13
45 -29z"/>
</g>
</svg>
